<?xml version="1.0" encoding="UTF-8"?>
<svg id="Layer_1" data-name="Layer 1" xmlns="http://www.w3.org/2000/svg" viewBox="0 0 282.96 278.96">
  <defs>
    <style>
      .cls-1 {
        fill: #c3ab78;
      }
    </style>
  </defs>
  <path class="cls-1" d="M160.97,196.97c-13.16,0-27.62-16.9-30.16-20.05l-.05,.04-.35-.44-.03-.02-.36-.48c-1.71-2.31-3.52-4.63-5.38-6.89-1.05-1.28-1.98-2.37-2.92-3.43l-.24-.27c-4.18-4.74-8.03-8.43-11.14-10.67l-.44-.31c-.72-.5-1.43-.95-2.1-1.29-3.69-1.87-7.64-3.22-11.74-4-2.85-.61-5.82-.92-8.89-.92-23.71,0-44.23,21.84-48.8,46.24l-.51,2.69-10.69-.05-.14-157.84-.23-6.58H104.17c2.8,.08,5.32,.42,7.57,1,6.8,1.71,12.94,5.37,17.87,10.57v-5l.1-6.58h75.92c3.25,.08,6.26,.58,9.03,1.48,.63,.19,1.4,.49,2.16,.81l.96,.41c5.52,2.21,10.33,5.65,14.34,10.22,1.49,1.73,2.62,3.22,3.61,4.76,.1,.15,.2,.33,.31,.51,1.16,1.87,1.96,3.34,2.63,4.78,.15,.33,.29,.67,.42,1.02l.18,.45c.54,1.29,1.15,2.74,1.62,4.32,.2,.66,.35,1.34,.49,2.03l.38,1.64c.21,.85,.41,1.69,.54,2.57,.34,2.23,.51,4.46,.51,6.62,0,2.02-.17,4.18-.53,6.58-.07,.53-.1,.78-.15,1.04-.34,1.97-.84,4-1.48,6.01l-.33,.98c-.78,2.24-1.57,4.1-2.47,5.84-.09,.18-.19,.36-.3,.54-.53,.98-1.06,1.88-1.59,2.72,.27,.22,.54,.44,.81,.66,.87,.72,1.73,1.46,2.55,2.23,.72,.69,1.41,1.41,2.09,2.14,.85,.9,1.68,1.82,2.47,2.79,.51,.63,.98,1.26,1.45,1.9,.94,1.27,1.76,2.45,2.52,3.67,.3,.48,.58,.97,.86,1.46,.99,1.72,1.76,3.2,2.44,4.68l.44,1c.81,1.85,1.52,3.74,2.12,5.61,1.5,4.81,2.37,9.58,2.65,14.43l.03,.41c.09,.99,.17,2.02,.17,3.07,0,44.79-43.51,54.87-58.75,54.87h-36.82Zm36.82-13.15c11.6,0,43.81-7.03,46.5-37.56-.48,.13-.96,.26-1.44,.4-.62,.19-1.24,.38-1.86,.59-.82,.28-1.63,.57-2.43,.88-.62,.24-1.23,.48-1.84,.73-.82,.34-1.65,.72-2.48,1.1-.77,.35-1.27,.58-1.77,.83-.87,.42-1.74,.87-2.61,1.32l-1.66,.87c-.95,.51-1.91,1.05-2.86,1.59l-1.43,.81c-1.16,.67-2.31,1.36-3.47,2.05l-5.1,3.08c-11.46,6.98-23.07,14.05-37.3,18.39-2.31,.7-4.74,1.3-7.66,1.89-.65,.13-1.31,.25-1.97,.37-2.73,.47-5.14,.78-7.36,.93l-.37,.03c-1.28,.08-2.56,.12-3.83,.12-.3,0-.6,0-.89,0,.82,.43,1.65,.79,2.45,1.06l.35,.1c1.03,.3,1.7,.42,2.21,.43h.23s36.61,0,36.61,0Zm-109.41-48.9c3.35,0,6.68,.32,9.9,.96,6.31,1.24,12.16,3.66,17.39,7.18,4.81,3.25,8.87,7.43,12.79,11.47,1.15,1.19,2.31,2.38,3.48,3.54,3.79,3.76,9.51,9.44,15.22,10.31,2.94,.45,5.96,.67,8.98,.67,6.24,0,12.51-.95,18.64-2.82,10.96-3.34,21.21-9.52,31.13-15.5,11.64-7.01,23.67-14.26,37.29-17.36,.26-.06,.39-.13,.42-.16,.14-.3,.75-2.47-4.21-11.63l-.16-.3c-3.34-6.17-7.96-11.27-13.4-14.82-14.37,2.91-29.58,9.4-44.08,18.81-2.37,1.54-4.69,3.22-7.01,4.9-8.3,6.01-16.88,12.22-27.92,12.46h-.56c-10.52,0-19.08-6.32-26.63-11.89-14.2-10.48-26.6-15.57-37.91-15.57-3.66,0-7.28,.54-10.75,1.61-6.4,1.97-12.85,6.06-20.32,12.87-.71,.65-1.53,1.36-2.42,2.12-3.35,2.89-8.42,7.27-9.27,10.61-.38,1.49-.2,4.03-.04,6.26,.09,1.32,.18,2.59,.18,3.69v7.45c1.39-1.57,2.91-3.13,4.44-4.66l.85-.86c4.72-4.81,10.1-8.85,15.98-12.02,8.89-4.79,18.57-7.32,28-7.32ZM223.75,55.15c-2.3-2.72-5.08-4.96-8.18-6.53-.46,.22-2.4,1.18-2.4,1.18-14.96,7.35-28.22,18.31-39.75,30.94-10.82,11.86-20.58,17.38-30.72,17.38-8.05,0-15.17-3.41-22.71-7.03-19.07-9.15-40.36-13.65-57.96,1.67-8.92,7.77-17.3,17.99-22.08,29.39,7.73-5.82,14.56-12.64,23.46-16.37,22.24-9.3,44.47,.37,63.01,14.05,7.31,5.39,13.07,9.65,19.91,9.65,5.77,0,12.35-2.95,20.7-9.27,15.44-11.69,32.46-20.56,50.81-25.23,11.01-2.8,14.58-15.81,12.2-27.02-1.02-4.79-3.24-9.23-6.29-12.82ZM39.14,45.86c.06,3.59,.03,9.68-.03,20.29-.06,11.17-.14,25.05-.1,34.25,7.27-10.28,15.29-20.07,26.61-25.81,6.91-3.51,14.71-5.29,23.2-5.29,3.38,0,6.86,.29,10.33,.87,7.73,1.28,14.69,4.5,21.42,7.61,5.99,2.77,11.65,5.38,17.74,6.69,1.3,.28,2.62,.42,3.91,.42,9.21,0,16.93-7.16,22.63-13.41,2.54-2.79,5.35-5.64,8.57-8.71l1.54-1.47c2.78-2.59,5.66-5.09,8.56-7.44l1.67-1.31c3.33-2.61,6.32-4.79,9.12-6.66h-52.62s0,20.62,0,20.62l.02,.59c.03,.66,.07,1.47-.07,2.34-.51,3.28-4.03,4.44-7.15,4.44s-4.5-1.27-5.15-2.35c-.86-1.43-1.08-2.99-1.24-4.12l-.05-.35c-1.08-7.38-6.45-14.74-13.36-18.3-5.25-2.7-11.18-3.05-15.75-3.05-2.3,0-4.59,.1-6.86,.19-2.64,.11-5.03,.14-7.41,.14-2.69,0-5.38-.04-8.06-.09-2.66-.04-5.32-.09-7.99-.09h-29.47Z"/>
  <g>
    <path class="cls-1" d="M27.14,214.15h11.58c12.24,0,13.51,6.25,13.51,10.42,0,8.03-6.4,9.91-12.65,9.91l13.77,12.2h-7.52l-13.11-12.75v12.75h-5.59v-32.52Zm11.94,16.16c6.6,0,7.52-3.15,7.52-5.74s-.96-5.84-7.62-5.84h-6.25v11.58h6.35Z"/>
    <path class="cls-1" d="M55.25,233.61c0-6.96,2.64-13.31,13.01-13.31,9.6,0,12.3,7.32,11.63,15.5h-19c.3,4.47,2.54,7.06,7.21,7.06,4.32,0,5.69-2.08,6.2-4.17h5.69c-.46,4.42-3.51,8.33-11.69,8.33-10.47,0-13.06-6.45-13.06-13.41Zm3.55-18.8l18.55-3.91v4.17l-18.55,3.96v-4.22Zm15.5,16.66v-.1c.05-3.55-1.63-6.86-6.55-6.86s-6.56,3.15-6.81,6.96h13.36Z"/>
    <path class="cls-1" d="M84.37,220.65h2.95l1.22,3.35c.81-1.68,3.15-3.71,7.98-3.71,3.86,0,6.04,1.47,7.16,4.01,.76-1.83,3.15-4.01,8.08-4.01,7.11,0,8.59,4.98,8.59,11.08v15.29h-5.49v-15.6c0-3.66-.66-6.2-4.82-6.2s-4.93,2.49-4.93,6.2v15.6h-5.49v-15.6c0-3.66-.66-6.2-4.83-6.2s-4.98,2.49-4.98,6.2v15.6h-5.44v-26.01Z"/>
    <path class="cls-1" d="M127.88,210.08c2.34,0,3.86,.66,3.86,3.3s-1.53,3.25-3.86,3.25-4.01-.66-4.01-3.25,1.58-3.3,4.01-3.3Zm-2.74,10.57h5.39v26.01h-5.39v-26.01Z"/>
    <path class="cls-1" d="M147.86,214.15h12.7c8.69,0,12.14,3.5,12.14,8.13,0,3.1-1.17,6.4-4.32,7.11,3.51,.97,5.34,4.52,5.34,7.83,0,4.93-3,9.45-12.96,9.45h-12.9v-32.52Zm13.21,13.87c5.23,0,6.15-2.39,6.15-4.57,0-2.69-1.07-4.67-6.45-4.67h-7.31v9.25h7.62Zm-.1,14.07c5.99,0,7.01-2.13,7.01-4.93,0-4.32-3.45-4.82-6.91-4.82h-7.62v9.76h7.52Z"/>
    <path class="cls-1" d="M180.64,210.08c2.34,0,3.86,.66,3.86,3.3s-1.53,3.25-3.86,3.25-4.01-.66-4.01-3.25,1.58-3.3,4.01-3.3Zm-2.74,10.57h5.39v26.01h-5.39v-26.01Z"/>
    <path class="cls-1" d="M185.57,220.65h5.94l7.72,21.44,7.93-21.44h6.15l-11.03,26.01h-6.2l-10.52-26.01Z"/>
    <path class="cls-1" d="M213.78,233.61c0-6.96,2.64-13.31,13.01-13.31,9.6,0,12.3,7.32,11.63,15.5h-19c.3,4.47,2.54,7.06,7.21,7.06,4.32,0,5.69-2.08,6.2-4.17h5.69c-.46,4.42-3.51,8.33-11.69,8.33-10.47,0-13.06-6.45-13.06-13.41Zm19.05-2.13v-.1c.05-3.55-1.63-6.86-6.55-6.86s-6.56,3.15-6.81,6.96h13.36Z"/>
    <path class="cls-1" d="M242.9,220.65h2.9l1.27,3.61c1.57-3.35,4.62-4.27,9.25-3.96v4.72c-5.34-.76-7.98,1.83-7.98,7.93v13.72h-5.44v-26.01Z"/>
  </g>
</svg>